<mxfile host="app.diagrams.net" modified="2021-07-02T13:01:47.207Z" agent="5.0 (Windows NT 10.0; Win64; x64) AppleWebKit/537.36 (KHTML, like Gecko) Chrome/91.0.4472.124 Safari/537.36" etag="4dkWAVpPEBGf0fwesfSc" version="14.7.8" type="github">
  <diagram id="jHz7yGqMiqIr1waXeAuk" name="Page-1">
    <mxGraphModel dx="2500" dy="934" grid="1" gridSize="10" guides="1" tooltips="1" connect="1" arrows="1" fold="1" page="1" pageScale="1" pageWidth="827" pageHeight="1169" math="0" shadow="0">
      <root>
        <mxCell id="0" />
        <mxCell id="1" parent="0" />
        <mxCell id="AiTAA1YjpJdcQRGCm4l0-3" value="SUCURSAL" style="shape=table;startSize=30;container=1;collapsible=1;childLayout=tableLayout;fixedRows=1;rowLines=0;fontStyle=1;align=center;resizeLast=1;" vertex="1" parent="1">
          <mxGeometry x="-290" y="560" width="180" height="220" as="geometry" />
        </mxCell>
        <mxCell id="AiTAA1YjpJdcQRGCm4l0-4" value="" style="shape=partialRectangle;collapsible=0;dropTarget=0;pointerEvents=0;fillColor=none;top=0;left=0;bottom=1;right=0;points=[[0,0.5],[1,0.5]];portConstraint=eastwest;" vertex="1" parent="AiTAA1YjpJdcQRGCm4l0-3">
          <mxGeometry y="30" width="180" height="30" as="geometry" />
        </mxCell>
        <mxCell id="AiTAA1YjpJdcQRGCm4l0-5" value="PK" style="shape=partialRectangle;connectable=0;fillColor=none;top=0;left=0;bottom=0;right=0;fontStyle=1;overflow=hidden;" vertex="1" parent="AiTAA1YjpJdcQRGCm4l0-4">
          <mxGeometry width="30" height="30" as="geometry" />
        </mxCell>
        <mxCell id="AiTAA1YjpJdcQRGCm4l0-6" value="CODSucursal" style="shape=partialRectangle;connectable=0;fillColor=none;top=0;left=0;bottom=0;right=0;align=left;spacingLeft=6;fontStyle=5;overflow=hidden;" vertex="1" parent="AiTAA1YjpJdcQRGCm4l0-4">
          <mxGeometry x="30" width="150" height="30" as="geometry" />
        </mxCell>
        <mxCell id="AiTAA1YjpJdcQRGCm4l0-7" value="" style="shape=partialRectangle;collapsible=0;dropTarget=0;pointerEvents=0;fillColor=none;top=0;left=0;bottom=0;right=0;points=[[0,0.5],[1,0.5]];portConstraint=eastwest;" vertex="1" parent="AiTAA1YjpJdcQRGCm4l0-3">
          <mxGeometry y="60" width="180" height="30" as="geometry" />
        </mxCell>
        <mxCell id="AiTAA1YjpJdcQRGCm4l0-8" value="" style="shape=partialRectangle;connectable=0;fillColor=none;top=0;left=0;bottom=0;right=0;editable=1;overflow=hidden;" vertex="1" parent="AiTAA1YjpJdcQRGCm4l0-7">
          <mxGeometry width="30" height="30" as="geometry" />
        </mxCell>
        <mxCell id="AiTAA1YjpJdcQRGCm4l0-9" value="Direccion" style="shape=partialRectangle;connectable=0;fillColor=none;top=0;left=0;bottom=0;right=0;align=left;spacingLeft=6;overflow=hidden;" vertex="1" parent="AiTAA1YjpJdcQRGCm4l0-7">
          <mxGeometry x="30" width="150" height="30" as="geometry" />
        </mxCell>
        <mxCell id="AiTAA1YjpJdcQRGCm4l0-10" value="" style="shape=partialRectangle;collapsible=0;dropTarget=0;pointerEvents=0;fillColor=none;top=0;left=0;bottom=0;right=0;points=[[0,0.5],[1,0.5]];portConstraint=eastwest;" vertex="1" parent="AiTAA1YjpJdcQRGCm4l0-3">
          <mxGeometry y="90" width="180" height="30" as="geometry" />
        </mxCell>
        <mxCell id="AiTAA1YjpJdcQRGCm4l0-11" value="" style="shape=partialRectangle;connectable=0;fillColor=none;top=0;left=0;bottom=0;right=0;editable=1;overflow=hidden;" vertex="1" parent="AiTAA1YjpJdcQRGCm4l0-10">
          <mxGeometry width="30" height="30" as="geometry" />
        </mxCell>
        <mxCell id="AiTAA1YjpJdcQRGCm4l0-12" value="Telefono" style="shape=partialRectangle;connectable=0;fillColor=none;top=0;left=0;bottom=0;right=0;align=left;spacingLeft=6;overflow=hidden;" vertex="1" parent="AiTAA1YjpJdcQRGCm4l0-10">
          <mxGeometry x="30" width="150" height="30" as="geometry" />
        </mxCell>
        <mxCell id="AiTAA1YjpJdcQRGCm4l0-13" value="" style="shape=partialRectangle;collapsible=0;dropTarget=0;pointerEvents=0;fillColor=none;top=0;left=0;bottom=0;right=0;points=[[0,0.5],[1,0.5]];portConstraint=eastwest;" vertex="1" parent="AiTAA1YjpJdcQRGCm4l0-3">
          <mxGeometry y="120" width="180" height="30" as="geometry" />
        </mxCell>
        <mxCell id="AiTAA1YjpJdcQRGCm4l0-14" value="" style="shape=partialRectangle;connectable=0;fillColor=none;top=0;left=0;bottom=0;right=0;editable=1;overflow=hidden;" vertex="1" parent="AiTAA1YjpJdcQRGCm4l0-13">
          <mxGeometry width="30" height="30" as="geometry" />
        </mxCell>
        <mxCell id="AiTAA1YjpJdcQRGCm4l0-15" value="Ciudad" style="shape=partialRectangle;connectable=0;fillColor=none;top=0;left=0;bottom=0;right=0;align=left;spacingLeft=6;overflow=hidden;" vertex="1" parent="AiTAA1YjpJdcQRGCm4l0-13">
          <mxGeometry x="30" width="150" height="30" as="geometry" />
        </mxCell>
        <mxCell id="AiTAA1YjpJdcQRGCm4l0-16" value="" style="shape=partialRectangle;collapsible=0;dropTarget=0;pointerEvents=0;fillColor=none;top=0;left=0;bottom=0;right=0;points=[[0,0.5],[1,0.5]];portConstraint=eastwest;" vertex="1" parent="AiTAA1YjpJdcQRGCm4l0-3">
          <mxGeometry y="150" width="180" height="30" as="geometry" />
        </mxCell>
        <mxCell id="AiTAA1YjpJdcQRGCm4l0-17" value="" style="shape=partialRectangle;connectable=0;fillColor=none;top=0;left=0;bottom=0;right=0;editable=1;overflow=hidden;" vertex="1" parent="AiTAA1YjpJdcQRGCm4l0-16">
          <mxGeometry width="30" height="30" as="geometry" />
        </mxCell>
        <mxCell id="AiTAA1YjpJdcQRGCm4l0-18" value="Provincia" style="shape=partialRectangle;connectable=0;fillColor=none;top=0;left=0;bottom=0;right=0;align=left;spacingLeft=6;overflow=hidden;" vertex="1" parent="AiTAA1YjpJdcQRGCm4l0-16">
          <mxGeometry x="30" width="150" height="30" as="geometry" />
        </mxCell>
        <mxCell id="AiTAA1YjpJdcQRGCm4l0-19" value="REVISTA" style="shape=table;startSize=30;container=1;collapsible=1;childLayout=tableLayout;fixedRows=1;rowLines=0;fontStyle=1;align=center;resizeLast=1;" vertex="1" parent="1">
          <mxGeometry x="324" y="560" width="180" height="220" as="geometry">
            <mxRectangle x="380" y="570" width="80" height="30" as="alternateBounds" />
          </mxGeometry>
        </mxCell>
        <mxCell id="AiTAA1YjpJdcQRGCm4l0-20" value="" style="shape=partialRectangle;collapsible=0;dropTarget=0;pointerEvents=0;fillColor=none;top=0;left=0;bottom=1;right=0;points=[[0,0.5],[1,0.5]];portConstraint=eastwest;" vertex="1" parent="AiTAA1YjpJdcQRGCm4l0-19">
          <mxGeometry y="30" width="180" height="30" as="geometry" />
        </mxCell>
        <mxCell id="AiTAA1YjpJdcQRGCm4l0-21" value="PK" style="shape=partialRectangle;connectable=0;fillColor=none;top=0;left=0;bottom=0;right=0;fontStyle=1;overflow=hidden;" vertex="1" parent="AiTAA1YjpJdcQRGCm4l0-20">
          <mxGeometry width="30" height="30" as="geometry" />
        </mxCell>
        <mxCell id="AiTAA1YjpJdcQRGCm4l0-22" value="CODRevista" style="shape=partialRectangle;connectable=0;fillColor=none;top=0;left=0;bottom=0;right=0;align=left;spacingLeft=6;fontStyle=5;overflow=hidden;" vertex="1" parent="AiTAA1YjpJdcQRGCm4l0-20">
          <mxGeometry x="30" width="150" height="30" as="geometry" />
        </mxCell>
        <mxCell id="AiTAA1YjpJdcQRGCm4l0-23" value="" style="shape=partialRectangle;collapsible=0;dropTarget=0;pointerEvents=0;fillColor=none;top=0;left=0;bottom=0;right=0;points=[[0,0.5],[1,0.5]];portConstraint=eastwest;" vertex="1" parent="AiTAA1YjpJdcQRGCm4l0-19">
          <mxGeometry y="60" width="180" height="30" as="geometry" />
        </mxCell>
        <mxCell id="AiTAA1YjpJdcQRGCm4l0-24" value="" style="shape=partialRectangle;connectable=0;fillColor=none;top=0;left=0;bottom=0;right=0;editable=1;overflow=hidden;" vertex="1" parent="AiTAA1YjpJdcQRGCm4l0-23">
          <mxGeometry width="30" height="30" as="geometry" />
        </mxCell>
        <mxCell id="AiTAA1YjpJdcQRGCm4l0-25" value="Titulo" style="shape=partialRectangle;connectable=0;fillColor=none;top=0;left=0;bottom=0;right=0;align=left;spacingLeft=6;overflow=hidden;" vertex="1" parent="AiTAA1YjpJdcQRGCm4l0-23">
          <mxGeometry x="30" width="150" height="30" as="geometry" />
        </mxCell>
        <mxCell id="AiTAA1YjpJdcQRGCm4l0-26" value="" style="shape=partialRectangle;collapsible=0;dropTarget=0;pointerEvents=0;fillColor=none;top=0;left=0;bottom=0;right=0;points=[[0,0.5],[1,0.5]];portConstraint=eastwest;" vertex="1" parent="AiTAA1YjpJdcQRGCm4l0-19">
          <mxGeometry y="90" width="180" height="30" as="geometry" />
        </mxCell>
        <mxCell id="AiTAA1YjpJdcQRGCm4l0-27" value="" style="shape=partialRectangle;connectable=0;fillColor=none;top=0;left=0;bottom=0;right=0;editable=1;overflow=hidden;" vertex="1" parent="AiTAA1YjpJdcQRGCm4l0-26">
          <mxGeometry width="30" height="30" as="geometry" />
        </mxCell>
        <mxCell id="AiTAA1YjpJdcQRGCm4l0-28" value="Tipo" style="shape=partialRectangle;connectable=0;fillColor=none;top=0;left=0;bottom=0;right=0;align=left;spacingLeft=6;overflow=hidden;" vertex="1" parent="AiTAA1YjpJdcQRGCm4l0-26">
          <mxGeometry x="30" width="150" height="30" as="geometry" />
        </mxCell>
        <mxCell id="AiTAA1YjpJdcQRGCm4l0-29" value="" style="shape=partialRectangle;collapsible=0;dropTarget=0;pointerEvents=0;fillColor=none;top=0;left=0;bottom=0;right=0;points=[[0,0.5],[1,0.5]];portConstraint=eastwest;" vertex="1" parent="AiTAA1YjpJdcQRGCm4l0-19">
          <mxGeometry y="120" width="180" height="30" as="geometry" />
        </mxCell>
        <mxCell id="AiTAA1YjpJdcQRGCm4l0-30" value="" style="shape=partialRectangle;connectable=0;fillColor=none;top=0;left=0;bottom=0;right=0;editable=1;overflow=hidden;" vertex="1" parent="AiTAA1YjpJdcQRGCm4l0-29">
          <mxGeometry width="30" height="30" as="geometry" />
        </mxCell>
        <mxCell id="AiTAA1YjpJdcQRGCm4l0-31" value="Periocidad" style="shape=partialRectangle;connectable=0;fillColor=none;top=0;left=0;bottom=0;right=0;align=left;spacingLeft=6;overflow=hidden;" vertex="1" parent="AiTAA1YjpJdcQRGCm4l0-29">
          <mxGeometry x="30" width="150" height="30" as="geometry" />
        </mxCell>
        <mxCell id="AiTAA1YjpJdcQRGCm4l0-32" value="" style="shape=partialRectangle;collapsible=0;dropTarget=0;pointerEvents=0;fillColor=none;top=0;left=0;bottom=0;right=0;points=[[0,0.5],[1,0.5]];portConstraint=eastwest;" vertex="1" parent="AiTAA1YjpJdcQRGCm4l0-19">
          <mxGeometry y="150" width="180" height="30" as="geometry" />
        </mxCell>
        <mxCell id="AiTAA1YjpJdcQRGCm4l0-33" value="" style="shape=partialRectangle;connectable=0;fillColor=none;top=0;left=0;bottom=0;right=0;editable=1;overflow=hidden;" vertex="1" parent="AiTAA1YjpJdcQRGCm4l0-32">
          <mxGeometry width="30" height="30" as="geometry" />
        </mxCell>
        <mxCell id="AiTAA1YjpJdcQRGCm4l0-34" value="" style="shape=partialRectangle;connectable=0;fillColor=none;top=0;left=0;bottom=0;right=0;align=left;spacingLeft=6;overflow=hidden;" vertex="1" parent="AiTAA1YjpJdcQRGCm4l0-32">
          <mxGeometry x="30" width="150" height="30" as="geometry" />
        </mxCell>
        <mxCell id="AiTAA1YjpJdcQRGCm4l0-35" value="EMPLEADO" style="shape=table;startSize=30;container=1;collapsible=1;childLayout=tableLayout;fixedRows=1;rowLines=0;fontStyle=1;align=center;resizeLast=1;" vertex="1" parent="1">
          <mxGeometry x="-560" y="560" width="180" height="310" as="geometry" />
        </mxCell>
        <mxCell id="AiTAA1YjpJdcQRGCm4l0-36" value="" style="shape=partialRectangle;collapsible=0;dropTarget=0;pointerEvents=0;fillColor=none;top=0;left=0;bottom=1;right=0;points=[[0,0.5],[1,0.5]];portConstraint=eastwest;" vertex="1" parent="AiTAA1YjpJdcQRGCm4l0-35">
          <mxGeometry y="30" width="180" height="30" as="geometry" />
        </mxCell>
        <mxCell id="AiTAA1YjpJdcQRGCm4l0-37" value="PK" style="shape=partialRectangle;connectable=0;fillColor=none;top=0;left=0;bottom=0;right=0;fontStyle=1;overflow=hidden;" vertex="1" parent="AiTAA1YjpJdcQRGCm4l0-36">
          <mxGeometry width="30" height="30" as="geometry" />
        </mxCell>
        <mxCell id="AiTAA1YjpJdcQRGCm4l0-38" value="CODEmpleado" style="shape=partialRectangle;connectable=0;fillColor=none;top=0;left=0;bottom=0;right=0;align=left;spacingLeft=6;fontStyle=5;overflow=hidden;" vertex="1" parent="AiTAA1YjpJdcQRGCm4l0-36">
          <mxGeometry x="30" width="150" height="30" as="geometry" />
        </mxCell>
        <mxCell id="AiTAA1YjpJdcQRGCm4l0-39" value="" style="shape=partialRectangle;collapsible=0;dropTarget=0;pointerEvents=0;fillColor=none;top=0;left=0;bottom=0;right=0;points=[[0,0.5],[1,0.5]];portConstraint=eastwest;" vertex="1" parent="AiTAA1YjpJdcQRGCm4l0-35">
          <mxGeometry y="60" width="180" height="30" as="geometry" />
        </mxCell>
        <mxCell id="AiTAA1YjpJdcQRGCm4l0-40" value="FK1" style="shape=partialRectangle;connectable=0;fillColor=none;top=0;left=0;bottom=0;right=0;editable=1;overflow=hidden;fontStyle=1" vertex="1" parent="AiTAA1YjpJdcQRGCm4l0-39">
          <mxGeometry width="30" height="30" as="geometry" />
        </mxCell>
        <mxCell id="AiTAA1YjpJdcQRGCm4l0-41" value="CODSucursal" style="shape=partialRectangle;connectable=0;fillColor=none;top=0;left=0;bottom=0;right=0;align=left;spacingLeft=6;overflow=hidden;fontStyle=5" vertex="1" parent="AiTAA1YjpJdcQRGCm4l0-39">
          <mxGeometry x="30" width="150" height="30" as="geometry" />
        </mxCell>
        <mxCell id="AiTAA1YjpJdcQRGCm4l0-42" value="" style="shape=partialRectangle;collapsible=0;dropTarget=0;pointerEvents=0;fillColor=none;top=0;left=0;bottom=0;right=0;points=[[0,0.5],[1,0.5]];portConstraint=eastwest;" vertex="1" parent="AiTAA1YjpJdcQRGCm4l0-35">
          <mxGeometry y="90" width="180" height="30" as="geometry" />
        </mxCell>
        <mxCell id="AiTAA1YjpJdcQRGCm4l0-43" value="" style="shape=partialRectangle;connectable=0;fillColor=none;top=0;left=0;bottom=0;right=0;editable=1;overflow=hidden;" vertex="1" parent="AiTAA1YjpJdcQRGCm4l0-42">
          <mxGeometry width="30" height="30" as="geometry" />
        </mxCell>
        <mxCell id="AiTAA1YjpJdcQRGCm4l0-44" value="NIF" style="shape=partialRectangle;connectable=0;fillColor=none;top=0;left=0;bottom=0;right=0;align=left;spacingLeft=6;overflow=hidden;" vertex="1" parent="AiTAA1YjpJdcQRGCm4l0-42">
          <mxGeometry x="30" width="150" height="30" as="geometry" />
        </mxCell>
        <mxCell id="AiTAA1YjpJdcQRGCm4l0-45" value="" style="shape=partialRectangle;collapsible=0;dropTarget=0;pointerEvents=0;fillColor=none;top=0;left=0;bottom=0;right=0;points=[[0,0.5],[1,0.5]];portConstraint=eastwest;" vertex="1" parent="AiTAA1YjpJdcQRGCm4l0-35">
          <mxGeometry y="120" width="180" height="30" as="geometry" />
        </mxCell>
        <mxCell id="AiTAA1YjpJdcQRGCm4l0-46" value="" style="shape=partialRectangle;connectable=0;fillColor=none;top=0;left=0;bottom=0;right=0;editable=1;overflow=hidden;" vertex="1" parent="AiTAA1YjpJdcQRGCm4l0-45">
          <mxGeometry width="30" height="30" as="geometry" />
        </mxCell>
        <mxCell id="AiTAA1YjpJdcQRGCm4l0-47" value="Nombre" style="shape=partialRectangle;connectable=0;fillColor=none;top=0;left=0;bottom=0;right=0;align=left;spacingLeft=6;overflow=hidden;" vertex="1" parent="AiTAA1YjpJdcQRGCm4l0-45">
          <mxGeometry x="30" width="150" height="30" as="geometry" />
        </mxCell>
        <mxCell id="AiTAA1YjpJdcQRGCm4l0-48" value="" style="shape=partialRectangle;collapsible=0;dropTarget=0;pointerEvents=0;fillColor=none;top=0;left=0;bottom=0;right=0;points=[[0,0.5],[1,0.5]];portConstraint=eastwest;" vertex="1" parent="AiTAA1YjpJdcQRGCm4l0-35">
          <mxGeometry y="150" width="180" height="30" as="geometry" />
        </mxCell>
        <mxCell id="AiTAA1YjpJdcQRGCm4l0-49" value="" style="shape=partialRectangle;connectable=0;fillColor=none;top=0;left=0;bottom=0;right=0;editable=1;overflow=hidden;" vertex="1" parent="AiTAA1YjpJdcQRGCm4l0-48">
          <mxGeometry width="30" height="30" as="geometry" />
        </mxCell>
        <mxCell id="AiTAA1YjpJdcQRGCm4l0-50" value="Apellido1" style="shape=partialRectangle;connectable=0;fillColor=none;top=0;left=0;bottom=0;right=0;align=left;spacingLeft=6;overflow=hidden;" vertex="1" parent="AiTAA1YjpJdcQRGCm4l0-48">
          <mxGeometry x="30" width="150" height="30" as="geometry" />
        </mxCell>
        <mxCell id="AiTAA1YjpJdcQRGCm4l0-51" value="" style="shape=partialRectangle;collapsible=0;dropTarget=0;pointerEvents=0;fillColor=none;top=0;left=0;bottom=0;right=0;points=[[0,0.5],[1,0.5]];portConstraint=eastwest;" vertex="1" parent="AiTAA1YjpJdcQRGCm4l0-35">
          <mxGeometry y="180" width="180" height="30" as="geometry" />
        </mxCell>
        <mxCell id="AiTAA1YjpJdcQRGCm4l0-52" value="" style="shape=partialRectangle;connectable=0;fillColor=none;top=0;left=0;bottom=0;right=0;editable=1;overflow=hidden;" vertex="1" parent="AiTAA1YjpJdcQRGCm4l0-51">
          <mxGeometry width="30" height="30" as="geometry" />
        </mxCell>
        <mxCell id="AiTAA1YjpJdcQRGCm4l0-53" value="Apellido2" style="shape=partialRectangle;connectable=0;fillColor=none;top=0;left=0;bottom=0;right=0;align=left;spacingLeft=6;overflow=hidden;" vertex="1" parent="AiTAA1YjpJdcQRGCm4l0-51">
          <mxGeometry x="30" width="150" height="30" as="geometry" />
        </mxCell>
        <mxCell id="AiTAA1YjpJdcQRGCm4l0-130" value="" style="shape=partialRectangle;collapsible=0;dropTarget=0;pointerEvents=0;fillColor=none;top=0;left=0;bottom=0;right=0;points=[[0,0.5],[1,0.5]];portConstraint=eastwest;" vertex="1" parent="AiTAA1YjpJdcQRGCm4l0-35">
          <mxGeometry y="210" width="180" height="30" as="geometry" />
        </mxCell>
        <mxCell id="AiTAA1YjpJdcQRGCm4l0-131" value="" style="shape=partialRectangle;connectable=0;fillColor=none;top=0;left=0;bottom=0;right=0;editable=1;overflow=hidden;" vertex="1" parent="AiTAA1YjpJdcQRGCm4l0-130">
          <mxGeometry width="30" height="30" as="geometry" />
        </mxCell>
        <mxCell id="AiTAA1YjpJdcQRGCm4l0-132" value="Telefono" style="shape=partialRectangle;connectable=0;fillColor=none;top=0;left=0;bottom=0;right=0;align=left;spacingLeft=6;overflow=hidden;" vertex="1" parent="AiTAA1YjpJdcQRGCm4l0-130">
          <mxGeometry x="30" width="150" height="30" as="geometry" />
        </mxCell>
        <mxCell id="AiTAA1YjpJdcQRGCm4l0-54" value="PERIODISTA" style="shape=table;startSize=30;container=1;collapsible=1;childLayout=tableLayout;fixedRows=1;rowLines=0;fontStyle=1;align=center;resizeLast=1;" vertex="1" parent="1">
          <mxGeometry x="324" y="889" width="180" height="280" as="geometry" />
        </mxCell>
        <mxCell id="AiTAA1YjpJdcQRGCm4l0-55" value="" style="shape=partialRectangle;collapsible=0;dropTarget=0;pointerEvents=0;fillColor=none;top=0;left=0;bottom=1;right=0;points=[[0,0.5],[1,0.5]];portConstraint=eastwest;" vertex="1" parent="AiTAA1YjpJdcQRGCm4l0-54">
          <mxGeometry y="30" width="180" height="30" as="geometry" />
        </mxCell>
        <mxCell id="AiTAA1YjpJdcQRGCm4l0-56" value="PK" style="shape=partialRectangle;connectable=0;fillColor=none;top=0;left=0;bottom=0;right=0;fontStyle=1;overflow=hidden;" vertex="1" parent="AiTAA1YjpJdcQRGCm4l0-55">
          <mxGeometry width="30" height="30" as="geometry" />
        </mxCell>
        <mxCell id="AiTAA1YjpJdcQRGCm4l0-57" value="CODPeriodista" style="shape=partialRectangle;connectable=0;fillColor=none;top=0;left=0;bottom=0;right=0;align=left;spacingLeft=6;fontStyle=5;overflow=hidden;" vertex="1" parent="AiTAA1YjpJdcQRGCm4l0-55">
          <mxGeometry x="30" width="150" height="30" as="geometry" />
        </mxCell>
        <mxCell id="AiTAA1YjpJdcQRGCm4l0-58" value="" style="shape=partialRectangle;collapsible=0;dropTarget=0;pointerEvents=0;fillColor=none;top=0;left=0;bottom=0;right=0;points=[[0,0.5],[1,0.5]];portConstraint=eastwest;" vertex="1" parent="AiTAA1YjpJdcQRGCm4l0-54">
          <mxGeometry y="60" width="180" height="30" as="geometry" />
        </mxCell>
        <mxCell id="AiTAA1YjpJdcQRGCm4l0-59" value="" style="shape=partialRectangle;connectable=0;fillColor=none;top=0;left=0;bottom=0;right=0;editable=1;overflow=hidden;" vertex="1" parent="AiTAA1YjpJdcQRGCm4l0-58">
          <mxGeometry width="30" height="30" as="geometry" />
        </mxCell>
        <mxCell id="AiTAA1YjpJdcQRGCm4l0-60" value="Especialidad" style="shape=partialRectangle;connectable=0;fillColor=none;top=0;left=0;bottom=0;right=0;align=left;spacingLeft=6;overflow=hidden;" vertex="1" parent="AiTAA1YjpJdcQRGCm4l0-58">
          <mxGeometry x="30" width="150" height="30" as="geometry" />
        </mxCell>
        <mxCell id="AiTAA1YjpJdcQRGCm4l0-61" value="" style="shape=partialRectangle;collapsible=0;dropTarget=0;pointerEvents=0;fillColor=none;top=0;left=0;bottom=0;right=0;points=[[0,0.5],[1,0.5]];portConstraint=eastwest;" vertex="1" parent="AiTAA1YjpJdcQRGCm4l0-54">
          <mxGeometry y="90" width="180" height="30" as="geometry" />
        </mxCell>
        <mxCell id="AiTAA1YjpJdcQRGCm4l0-62" value="" style="shape=partialRectangle;connectable=0;fillColor=none;top=0;left=0;bottom=0;right=0;editable=1;overflow=hidden;" vertex="1" parent="AiTAA1YjpJdcQRGCm4l0-61">
          <mxGeometry width="30" height="30" as="geometry" />
        </mxCell>
        <mxCell id="AiTAA1YjpJdcQRGCm4l0-63" value="Telefono" style="shape=partialRectangle;connectable=0;fillColor=none;top=0;left=0;bottom=0;right=0;align=left;spacingLeft=6;overflow=hidden;" vertex="1" parent="AiTAA1YjpJdcQRGCm4l0-61">
          <mxGeometry x="30" width="150" height="30" as="geometry" />
        </mxCell>
        <mxCell id="AiTAA1YjpJdcQRGCm4l0-64" value="" style="shape=partialRectangle;collapsible=0;dropTarget=0;pointerEvents=0;fillColor=none;top=0;left=0;bottom=0;right=0;points=[[0,0.5],[1,0.5]];portConstraint=eastwest;" vertex="1" parent="AiTAA1YjpJdcQRGCm4l0-54">
          <mxGeometry y="120" width="180" height="30" as="geometry" />
        </mxCell>
        <mxCell id="AiTAA1YjpJdcQRGCm4l0-65" value="" style="shape=partialRectangle;connectable=0;fillColor=none;top=0;left=0;bottom=0;right=0;editable=1;overflow=hidden;" vertex="1" parent="AiTAA1YjpJdcQRGCm4l0-64">
          <mxGeometry width="30" height="30" as="geometry" />
        </mxCell>
        <mxCell id="AiTAA1YjpJdcQRGCm4l0-66" value="Nombre" style="shape=partialRectangle;connectable=0;fillColor=none;top=0;left=0;bottom=0;right=0;align=left;spacingLeft=6;overflow=hidden;" vertex="1" parent="AiTAA1YjpJdcQRGCm4l0-64">
          <mxGeometry x="30" width="150" height="30" as="geometry" />
        </mxCell>
        <mxCell id="AiTAA1YjpJdcQRGCm4l0-67" value="" style="shape=partialRectangle;collapsible=0;dropTarget=0;pointerEvents=0;fillColor=none;top=0;left=0;bottom=0;right=0;points=[[0,0.5],[1,0.5]];portConstraint=eastwest;" vertex="1" parent="AiTAA1YjpJdcQRGCm4l0-54">
          <mxGeometry y="150" width="180" height="30" as="geometry" />
        </mxCell>
        <mxCell id="AiTAA1YjpJdcQRGCm4l0-68" value="" style="shape=partialRectangle;connectable=0;fillColor=none;top=0;left=0;bottom=0;right=0;editable=1;overflow=hidden;" vertex="1" parent="AiTAA1YjpJdcQRGCm4l0-67">
          <mxGeometry width="30" height="30" as="geometry" />
        </mxCell>
        <mxCell id="AiTAA1YjpJdcQRGCm4l0-69" value="Apellido1" style="shape=partialRectangle;connectable=0;fillColor=none;top=0;left=0;bottom=0;right=0;align=left;spacingLeft=6;overflow=hidden;" vertex="1" parent="AiTAA1YjpJdcQRGCm4l0-67">
          <mxGeometry x="30" width="150" height="30" as="geometry" />
        </mxCell>
        <mxCell id="AiTAA1YjpJdcQRGCm4l0-70" value="" style="shape=partialRectangle;collapsible=0;dropTarget=0;pointerEvents=0;fillColor=none;top=0;left=0;bottom=0;right=0;points=[[0,0.5],[1,0.5]];portConstraint=eastwest;" vertex="1" parent="AiTAA1YjpJdcQRGCm4l0-54">
          <mxGeometry y="180" width="180" height="30" as="geometry" />
        </mxCell>
        <mxCell id="AiTAA1YjpJdcQRGCm4l0-71" value="" style="shape=partialRectangle;connectable=0;fillColor=none;top=0;left=0;bottom=0;right=0;editable=1;overflow=hidden;" vertex="1" parent="AiTAA1YjpJdcQRGCm4l0-70">
          <mxGeometry width="30" height="30" as="geometry" />
        </mxCell>
        <mxCell id="AiTAA1YjpJdcQRGCm4l0-72" value="Apellido2" style="shape=partialRectangle;connectable=0;fillColor=none;top=0;left=0;bottom=0;right=0;align=left;spacingLeft=6;overflow=hidden;" vertex="1" parent="AiTAA1YjpJdcQRGCm4l0-70">
          <mxGeometry x="30" width="150" height="30" as="geometry" />
        </mxCell>
        <mxCell id="AiTAA1YjpJdcQRGCm4l0-73" value="EJEMPLAR" style="shape=table;startSize=30;container=1;collapsible=1;childLayout=tableLayout;fixedRows=1;rowLines=0;fontStyle=1;align=center;resizeLast=1;" vertex="1" parent="1">
          <mxGeometry x="690" y="575" width="180" height="190" as="geometry" />
        </mxCell>
        <mxCell id="AiTAA1YjpJdcQRGCm4l0-74" value="" style="shape=partialRectangle;collapsible=0;dropTarget=0;pointerEvents=0;fillColor=none;top=0;left=0;bottom=1;right=0;points=[[0,0.5],[1,0.5]];portConstraint=eastwest;" vertex="1" parent="AiTAA1YjpJdcQRGCm4l0-73">
          <mxGeometry y="30" width="180" height="30" as="geometry" />
        </mxCell>
        <mxCell id="AiTAA1YjpJdcQRGCm4l0-75" value="PK" style="shape=partialRectangle;connectable=0;fillColor=none;top=0;left=0;bottom=0;right=0;fontStyle=1;overflow=hidden;" vertex="1" parent="AiTAA1YjpJdcQRGCm4l0-74">
          <mxGeometry width="30" height="30" as="geometry" />
        </mxCell>
        <mxCell id="AiTAA1YjpJdcQRGCm4l0-76" value="CODEjemplar" style="shape=partialRectangle;connectable=0;fillColor=none;top=0;left=0;bottom=0;right=0;align=left;spacingLeft=6;fontStyle=5;overflow=hidden;" vertex="1" parent="AiTAA1YjpJdcQRGCm4l0-74">
          <mxGeometry x="30" width="150" height="30" as="geometry" />
        </mxCell>
        <mxCell id="AiTAA1YjpJdcQRGCm4l0-77" value="" style="shape=partialRectangle;collapsible=0;dropTarget=0;pointerEvents=0;fillColor=none;top=0;left=0;bottom=0;right=0;points=[[0,0.5],[1,0.5]];portConstraint=eastwest;" vertex="1" parent="AiTAA1YjpJdcQRGCm4l0-73">
          <mxGeometry y="60" width="180" height="30" as="geometry" />
        </mxCell>
        <mxCell id="AiTAA1YjpJdcQRGCm4l0-78" value="FK1" style="shape=partialRectangle;connectable=0;fillColor=none;top=0;left=0;bottom=0;right=0;editable=1;overflow=hidden;fontStyle=1" vertex="1" parent="AiTAA1YjpJdcQRGCm4l0-77">
          <mxGeometry width="30" height="30" as="geometry" />
        </mxCell>
        <mxCell id="AiTAA1YjpJdcQRGCm4l0-79" value="CODRevista" style="shape=partialRectangle;connectable=0;fillColor=none;top=0;left=0;bottom=0;right=0;align=left;spacingLeft=6;overflow=hidden;fontStyle=5" vertex="1" parent="AiTAA1YjpJdcQRGCm4l0-77">
          <mxGeometry x="30" width="150" height="30" as="geometry" />
        </mxCell>
        <mxCell id="AiTAA1YjpJdcQRGCm4l0-80" value="" style="shape=partialRectangle;collapsible=0;dropTarget=0;pointerEvents=0;fillColor=none;top=0;left=0;bottom=0;right=0;points=[[0,0.5],[1,0.5]];portConstraint=eastwest;" vertex="1" parent="AiTAA1YjpJdcQRGCm4l0-73">
          <mxGeometry y="90" width="180" height="30" as="geometry" />
        </mxCell>
        <mxCell id="AiTAA1YjpJdcQRGCm4l0-81" value="" style="shape=partialRectangle;connectable=0;fillColor=none;top=0;left=0;bottom=0;right=0;editable=1;overflow=hidden;" vertex="1" parent="AiTAA1YjpJdcQRGCm4l0-80">
          <mxGeometry width="30" height="30" as="geometry" />
        </mxCell>
        <mxCell id="AiTAA1YjpJdcQRGCm4l0-82" value="Numero_ejemplares" style="shape=partialRectangle;connectable=0;fillColor=none;top=0;left=0;bottom=0;right=0;align=left;spacingLeft=6;overflow=hidden;" vertex="1" parent="AiTAA1YjpJdcQRGCm4l0-80">
          <mxGeometry x="30" width="150" height="30" as="geometry" />
        </mxCell>
        <mxCell id="AiTAA1YjpJdcQRGCm4l0-83" value="" style="shape=partialRectangle;collapsible=0;dropTarget=0;pointerEvents=0;fillColor=none;top=0;left=0;bottom=0;right=0;points=[[0,0.5],[1,0.5]];portConstraint=eastwest;" vertex="1" parent="AiTAA1YjpJdcQRGCm4l0-73">
          <mxGeometry y="120" width="180" height="30" as="geometry" />
        </mxCell>
        <mxCell id="AiTAA1YjpJdcQRGCm4l0-84" value="" style="shape=partialRectangle;connectable=0;fillColor=none;top=0;left=0;bottom=0;right=0;editable=1;overflow=hidden;" vertex="1" parent="AiTAA1YjpJdcQRGCm4l0-83">
          <mxGeometry width="30" height="30" as="geometry" />
        </mxCell>
        <mxCell id="AiTAA1YjpJdcQRGCm4l0-85" value="Fecha" style="shape=partialRectangle;connectable=0;fillColor=none;top=0;left=0;bottom=0;right=0;align=left;spacingLeft=6;overflow=hidden;" vertex="1" parent="AiTAA1YjpJdcQRGCm4l0-83">
          <mxGeometry x="30" width="150" height="30" as="geometry" />
        </mxCell>
        <mxCell id="AiTAA1YjpJdcQRGCm4l0-137" value="" style="shape=partialRectangle;collapsible=0;dropTarget=0;pointerEvents=0;fillColor=none;top=0;left=0;bottom=0;right=0;points=[[0,0.5],[1,0.5]];portConstraint=eastwest;" vertex="1" parent="AiTAA1YjpJdcQRGCm4l0-73">
          <mxGeometry y="150" width="180" height="30" as="geometry" />
        </mxCell>
        <mxCell id="AiTAA1YjpJdcQRGCm4l0-138" value="" style="shape=partialRectangle;connectable=0;fillColor=none;top=0;left=0;bottom=0;right=0;editable=1;overflow=hidden;" vertex="1" parent="AiTAA1YjpJdcQRGCm4l0-137">
          <mxGeometry width="30" height="30" as="geometry" />
        </mxCell>
        <mxCell id="AiTAA1YjpJdcQRGCm4l0-139" value="Numero_paginas" style="shape=partialRectangle;connectable=0;fillColor=none;top=0;left=0;bottom=0;right=0;align=left;spacingLeft=6;overflow=hidden;" vertex="1" parent="AiTAA1YjpJdcQRGCm4l0-137">
          <mxGeometry x="30" width="150" height="30" as="geometry" />
        </mxCell>
        <mxCell id="AiTAA1YjpJdcQRGCm4l0-86" value="SECCION" style="shape=table;startSize=30;container=1;collapsible=1;childLayout=tableLayout;fixedRows=1;rowLines=0;fontStyle=1;align=center;resizeLast=1;" vertex="1" parent="1">
          <mxGeometry x="690" y="330" width="180" height="220" as="geometry" />
        </mxCell>
        <mxCell id="AiTAA1YjpJdcQRGCm4l0-87" value="" style="shape=partialRectangle;collapsible=0;dropTarget=0;pointerEvents=0;fillColor=none;top=0;left=0;bottom=1;right=0;points=[[0,0.5],[1,0.5]];portConstraint=eastwest;" vertex="1" parent="AiTAA1YjpJdcQRGCm4l0-86">
          <mxGeometry y="30" width="180" height="30" as="geometry" />
        </mxCell>
        <mxCell id="AiTAA1YjpJdcQRGCm4l0-88" value="PK" style="shape=partialRectangle;connectable=0;fillColor=none;top=0;left=0;bottom=0;right=0;fontStyle=1;overflow=hidden;" vertex="1" parent="AiTAA1YjpJdcQRGCm4l0-87">
          <mxGeometry width="30" height="30" as="geometry" />
        </mxCell>
        <mxCell id="AiTAA1YjpJdcQRGCm4l0-89" value="CODSeccion" style="shape=partialRectangle;connectable=0;fillColor=none;top=0;left=0;bottom=0;right=0;align=left;spacingLeft=6;fontStyle=5;overflow=hidden;" vertex="1" parent="AiTAA1YjpJdcQRGCm4l0-87">
          <mxGeometry x="30" width="150" height="30" as="geometry" />
        </mxCell>
        <mxCell id="AiTAA1YjpJdcQRGCm4l0-90" value="" style="shape=partialRectangle;collapsible=0;dropTarget=0;pointerEvents=0;fillColor=none;top=0;left=0;bottom=0;right=0;points=[[0,0.5],[1,0.5]];portConstraint=eastwest;" vertex="1" parent="AiTAA1YjpJdcQRGCm4l0-86">
          <mxGeometry y="60" width="180" height="30" as="geometry" />
        </mxCell>
        <mxCell id="AiTAA1YjpJdcQRGCm4l0-91" value="FK1" style="shape=partialRectangle;connectable=0;fillColor=none;top=0;left=0;bottom=0;right=0;editable=1;overflow=hidden;fontStyle=1" vertex="1" parent="AiTAA1YjpJdcQRGCm4l0-90">
          <mxGeometry width="30" height="30" as="geometry" />
        </mxCell>
        <mxCell id="AiTAA1YjpJdcQRGCm4l0-92" value="CODRevista" style="shape=partialRectangle;connectable=0;fillColor=none;top=0;left=0;bottom=0;right=0;align=left;spacingLeft=6;overflow=hidden;fontStyle=5" vertex="1" parent="AiTAA1YjpJdcQRGCm4l0-90">
          <mxGeometry x="30" width="150" height="30" as="geometry" />
        </mxCell>
        <mxCell id="AiTAA1YjpJdcQRGCm4l0-93" value="" style="shape=partialRectangle;collapsible=0;dropTarget=0;pointerEvents=0;fillColor=none;top=0;left=0;bottom=0;right=0;points=[[0,0.5],[1,0.5]];portConstraint=eastwest;" vertex="1" parent="AiTAA1YjpJdcQRGCm4l0-86">
          <mxGeometry y="90" width="180" height="30" as="geometry" />
        </mxCell>
        <mxCell id="AiTAA1YjpJdcQRGCm4l0-94" value="" style="shape=partialRectangle;connectable=0;fillColor=none;top=0;left=0;bottom=0;right=0;editable=1;overflow=hidden;" vertex="1" parent="AiTAA1YjpJdcQRGCm4l0-93">
          <mxGeometry width="30" height="30" as="geometry" />
        </mxCell>
        <mxCell id="AiTAA1YjpJdcQRGCm4l0-95" value="Extension" style="shape=partialRectangle;connectable=0;fillColor=none;top=0;left=0;bottom=0;right=0;align=left;spacingLeft=6;overflow=hidden;" vertex="1" parent="AiTAA1YjpJdcQRGCm4l0-93">
          <mxGeometry x="30" width="150" height="30" as="geometry" />
        </mxCell>
        <mxCell id="AiTAA1YjpJdcQRGCm4l0-96" value="" style="shape=partialRectangle;collapsible=0;dropTarget=0;pointerEvents=0;fillColor=none;top=0;left=0;bottom=0;right=0;points=[[0,0.5],[1,0.5]];portConstraint=eastwest;" vertex="1" parent="AiTAA1YjpJdcQRGCm4l0-86">
          <mxGeometry y="120" width="180" height="30" as="geometry" />
        </mxCell>
        <mxCell id="AiTAA1YjpJdcQRGCm4l0-97" value="" style="shape=partialRectangle;connectable=0;fillColor=none;top=0;left=0;bottom=0;right=0;editable=1;overflow=hidden;" vertex="1" parent="AiTAA1YjpJdcQRGCm4l0-96">
          <mxGeometry width="30" height="30" as="geometry" />
        </mxCell>
        <mxCell id="AiTAA1YjpJdcQRGCm4l0-98" value="Titulo" style="shape=partialRectangle;connectable=0;fillColor=none;top=0;left=0;bottom=0;right=0;align=left;spacingLeft=6;overflow=hidden;" vertex="1" parent="AiTAA1YjpJdcQRGCm4l0-96">
          <mxGeometry x="30" width="150" height="30" as="geometry" />
        </mxCell>
        <mxCell id="AiTAA1YjpJdcQRGCm4l0-134" value="" style="shape=partialRectangle;collapsible=0;dropTarget=0;pointerEvents=0;fillColor=none;top=0;left=0;bottom=0;right=0;points=[[0,0.5],[1,0.5]];portConstraint=eastwest;" vertex="1" parent="AiTAA1YjpJdcQRGCm4l0-86">
          <mxGeometry y="150" width="180" height="30" as="geometry" />
        </mxCell>
        <mxCell id="AiTAA1YjpJdcQRGCm4l0-135" value="" style="shape=partialRectangle;connectable=0;fillColor=none;top=0;left=0;bottom=0;right=0;editable=1;overflow=hidden;" vertex="1" parent="AiTAA1YjpJdcQRGCm4l0-134">
          <mxGeometry width="30" height="30" as="geometry" />
        </mxCell>
        <mxCell id="AiTAA1YjpJdcQRGCm4l0-136" value="" style="shape=partialRectangle;connectable=0;fillColor=none;top=0;left=0;bottom=0;right=0;align=left;spacingLeft=6;overflow=hidden;" vertex="1" parent="AiTAA1YjpJdcQRGCm4l0-134">
          <mxGeometry x="30" width="150" height="30" as="geometry" />
        </mxCell>
        <mxCell id="AiTAA1YjpJdcQRGCm4l0-99" value="Publica" style="shape=table;startSize=30;container=1;collapsible=1;childLayout=tableLayout;fixedRows=1;rowLines=0;fontStyle=1;align=center;resizeLast=1;" vertex="1" parent="1">
          <mxGeometry x="20" y="560" width="180" height="160" as="geometry" />
        </mxCell>
        <mxCell id="AiTAA1YjpJdcQRGCm4l0-100" value="" style="shape=partialRectangle;collapsible=0;dropTarget=0;pointerEvents=0;fillColor=none;top=0;left=0;bottom=0;right=0;points=[[0,0.5],[1,0.5]];portConstraint=eastwest;" vertex="1" parent="AiTAA1YjpJdcQRGCm4l0-99">
          <mxGeometry y="30" width="180" height="30" as="geometry" />
        </mxCell>
        <mxCell id="AiTAA1YjpJdcQRGCm4l0-101" value="PK,FK1" style="shape=partialRectangle;connectable=0;fillColor=none;top=0;left=0;bottom=0;right=0;fontStyle=1;overflow=hidden;" vertex="1" parent="AiTAA1YjpJdcQRGCm4l0-100">
          <mxGeometry width="60" height="30" as="geometry" />
        </mxCell>
        <mxCell id="AiTAA1YjpJdcQRGCm4l0-102" value="CODSucursal" style="shape=partialRectangle;connectable=0;fillColor=none;top=0;left=0;bottom=0;right=0;align=left;spacingLeft=6;fontStyle=5;overflow=hidden;" vertex="1" parent="AiTAA1YjpJdcQRGCm4l0-100">
          <mxGeometry x="60" width="120" height="30" as="geometry" />
        </mxCell>
        <mxCell id="AiTAA1YjpJdcQRGCm4l0-103" value="" style="shape=partialRectangle;collapsible=0;dropTarget=0;pointerEvents=0;fillColor=none;top=0;left=0;bottom=1;right=0;points=[[0,0.5],[1,0.5]];portConstraint=eastwest;" vertex="1" parent="AiTAA1YjpJdcQRGCm4l0-99">
          <mxGeometry y="60" width="180" height="30" as="geometry" />
        </mxCell>
        <mxCell id="AiTAA1YjpJdcQRGCm4l0-104" value="PK,FK2" style="shape=partialRectangle;connectable=0;fillColor=none;top=0;left=0;bottom=0;right=0;fontStyle=1;overflow=hidden;" vertex="1" parent="AiTAA1YjpJdcQRGCm4l0-103">
          <mxGeometry width="60" height="30" as="geometry" />
        </mxCell>
        <mxCell id="AiTAA1YjpJdcQRGCm4l0-105" value="CODRevista" style="shape=partialRectangle;connectable=0;fillColor=none;top=0;left=0;bottom=0;right=0;align=left;spacingLeft=6;fontStyle=5;overflow=hidden;" vertex="1" parent="AiTAA1YjpJdcQRGCm4l0-103">
          <mxGeometry x="60" width="120" height="30" as="geometry" />
        </mxCell>
        <mxCell id="AiTAA1YjpJdcQRGCm4l0-106" value="" style="shape=partialRectangle;collapsible=0;dropTarget=0;pointerEvents=0;fillColor=none;top=0;left=0;bottom=0;right=0;points=[[0,0.5],[1,0.5]];portConstraint=eastwest;" vertex="1" parent="AiTAA1YjpJdcQRGCm4l0-99">
          <mxGeometry y="90" width="180" height="30" as="geometry" />
        </mxCell>
        <mxCell id="AiTAA1YjpJdcQRGCm4l0-107" value="" style="shape=partialRectangle;connectable=0;fillColor=none;top=0;left=0;bottom=0;right=0;editable=1;overflow=hidden;" vertex="1" parent="AiTAA1YjpJdcQRGCm4l0-106">
          <mxGeometry width="60" height="30" as="geometry" />
        </mxCell>
        <mxCell id="AiTAA1YjpJdcQRGCm4l0-108" value="" style="shape=partialRectangle;connectable=0;fillColor=none;top=0;left=0;bottom=0;right=0;align=left;spacingLeft=6;overflow=hidden;" vertex="1" parent="AiTAA1YjpJdcQRGCm4l0-106">
          <mxGeometry x="60" width="120" height="30" as="geometry" />
        </mxCell>
        <mxCell id="AiTAA1YjpJdcQRGCm4l0-109" value="" style="shape=partialRectangle;collapsible=0;dropTarget=0;pointerEvents=0;fillColor=none;top=0;left=0;bottom=0;right=0;points=[[0,0.5],[1,0.5]];portConstraint=eastwest;" vertex="1" parent="AiTAA1YjpJdcQRGCm4l0-99">
          <mxGeometry y="120" width="180" height="30" as="geometry" />
        </mxCell>
        <mxCell id="AiTAA1YjpJdcQRGCm4l0-110" value="" style="shape=partialRectangle;connectable=0;fillColor=none;top=0;left=0;bottom=0;right=0;editable=1;overflow=hidden;" vertex="1" parent="AiTAA1YjpJdcQRGCm4l0-109">
          <mxGeometry width="60" height="30" as="geometry" />
        </mxCell>
        <mxCell id="AiTAA1YjpJdcQRGCm4l0-111" value="" style="shape=partialRectangle;connectable=0;fillColor=none;top=0;left=0;bottom=0;right=0;align=left;spacingLeft=6;overflow=hidden;" vertex="1" parent="AiTAA1YjpJdcQRGCm4l0-109">
          <mxGeometry x="60" width="120" height="30" as="geometry" />
        </mxCell>
        <mxCell id="AiTAA1YjpJdcQRGCm4l0-112" value="Escribe" style="shape=table;startSize=30;container=1;collapsible=1;childLayout=tableLayout;fixedRows=1;rowLines=0;fontStyle=1;align=center;resizeLast=1;" vertex="1" parent="1">
          <mxGeometry x="690" y="800" width="180" height="160" as="geometry" />
        </mxCell>
        <mxCell id="AiTAA1YjpJdcQRGCm4l0-113" value="" style="shape=partialRectangle;collapsible=0;dropTarget=0;pointerEvents=0;fillColor=none;top=0;left=0;bottom=0;right=0;points=[[0,0.5],[1,0.5]];portConstraint=eastwest;" vertex="1" parent="AiTAA1YjpJdcQRGCm4l0-112">
          <mxGeometry y="30" width="180" height="30" as="geometry" />
        </mxCell>
        <mxCell id="AiTAA1YjpJdcQRGCm4l0-114" value="PK,FK1" style="shape=partialRectangle;connectable=0;fillColor=none;top=0;left=0;bottom=0;right=0;fontStyle=1;overflow=hidden;" vertex="1" parent="AiTAA1YjpJdcQRGCm4l0-113">
          <mxGeometry width="60" height="30" as="geometry" />
        </mxCell>
        <mxCell id="AiTAA1YjpJdcQRGCm4l0-115" value="CODRevista" style="shape=partialRectangle;connectable=0;fillColor=none;top=0;left=0;bottom=0;right=0;align=left;spacingLeft=6;fontStyle=5;overflow=hidden;" vertex="1" parent="AiTAA1YjpJdcQRGCm4l0-113">
          <mxGeometry x="60" width="120" height="30" as="geometry" />
        </mxCell>
        <mxCell id="AiTAA1YjpJdcQRGCm4l0-116" value="" style="shape=partialRectangle;collapsible=0;dropTarget=0;pointerEvents=0;fillColor=none;top=0;left=0;bottom=1;right=0;points=[[0,0.5],[1,0.5]];portConstraint=eastwest;" vertex="1" parent="AiTAA1YjpJdcQRGCm4l0-112">
          <mxGeometry y="60" width="180" height="30" as="geometry" />
        </mxCell>
        <mxCell id="AiTAA1YjpJdcQRGCm4l0-117" value="PK,FK2" style="shape=partialRectangle;connectable=0;fillColor=none;top=0;left=0;bottom=0;right=0;fontStyle=1;overflow=hidden;" vertex="1" parent="AiTAA1YjpJdcQRGCm4l0-116">
          <mxGeometry width="60" height="30" as="geometry" />
        </mxCell>
        <mxCell id="AiTAA1YjpJdcQRGCm4l0-118" value="CODPeriodista" style="shape=partialRectangle;connectable=0;fillColor=none;top=0;left=0;bottom=0;right=0;align=left;spacingLeft=6;fontStyle=5;overflow=hidden;" vertex="1" parent="AiTAA1YjpJdcQRGCm4l0-116">
          <mxGeometry x="60" width="120" height="30" as="geometry" />
        </mxCell>
        <mxCell id="AiTAA1YjpJdcQRGCm4l0-119" value="" style="shape=partialRectangle;collapsible=0;dropTarget=0;pointerEvents=0;fillColor=none;top=0;left=0;bottom=0;right=0;points=[[0,0.5],[1,0.5]];portConstraint=eastwest;" vertex="1" parent="AiTAA1YjpJdcQRGCm4l0-112">
          <mxGeometry y="90" width="180" height="30" as="geometry" />
        </mxCell>
        <mxCell id="AiTAA1YjpJdcQRGCm4l0-120" value="" style="shape=partialRectangle;connectable=0;fillColor=none;top=0;left=0;bottom=0;right=0;editable=1;overflow=hidden;" vertex="1" parent="AiTAA1YjpJdcQRGCm4l0-119">
          <mxGeometry width="60" height="30" as="geometry" />
        </mxCell>
        <mxCell id="AiTAA1YjpJdcQRGCm4l0-121" value="" style="shape=partialRectangle;connectable=0;fillColor=none;top=0;left=0;bottom=0;right=0;align=left;spacingLeft=6;overflow=hidden;" vertex="1" parent="AiTAA1YjpJdcQRGCm4l0-119">
          <mxGeometry x="60" width="120" height="30" as="geometry" />
        </mxCell>
        <mxCell id="AiTAA1YjpJdcQRGCm4l0-122" value="" style="shape=partialRectangle;collapsible=0;dropTarget=0;pointerEvents=0;fillColor=none;top=0;left=0;bottom=0;right=0;points=[[0,0.5],[1,0.5]];portConstraint=eastwest;" vertex="1" parent="AiTAA1YjpJdcQRGCm4l0-112">
          <mxGeometry y="120" width="180" height="30" as="geometry" />
        </mxCell>
        <mxCell id="AiTAA1YjpJdcQRGCm4l0-123" value="" style="shape=partialRectangle;connectable=0;fillColor=none;top=0;left=0;bottom=0;right=0;editable=1;overflow=hidden;" vertex="1" parent="AiTAA1YjpJdcQRGCm4l0-122">
          <mxGeometry width="60" height="30" as="geometry" />
        </mxCell>
        <mxCell id="AiTAA1YjpJdcQRGCm4l0-124" value="" style="shape=partialRectangle;connectable=0;fillColor=none;top=0;left=0;bottom=0;right=0;align=left;spacingLeft=6;overflow=hidden;" vertex="1" parent="AiTAA1YjpJdcQRGCm4l0-122">
          <mxGeometry x="60" width="120" height="30" as="geometry" />
        </mxCell>
        <mxCell id="AiTAA1YjpJdcQRGCm4l0-125" value="" style="edgeStyle=entityRelationEdgeStyle;fontSize=12;html=1;endArrow=ERmany;exitX=1;exitY=0.5;exitDx=0;exitDy=0;entryX=0;entryY=0.5;entryDx=0;entryDy=0;" edge="1" parent="1" source="AiTAA1YjpJdcQRGCm4l0-4" target="AiTAA1YjpJdcQRGCm4l0-100">
          <mxGeometry width="100" height="100" relative="1" as="geometry">
            <mxPoint x="140" y="590" as="sourcePoint" />
            <mxPoint x="240" y="490" as="targetPoint" />
          </mxGeometry>
        </mxCell>
        <mxCell id="AiTAA1YjpJdcQRGCm4l0-126" value="" style="edgeStyle=entityRelationEdgeStyle;fontSize=12;html=1;endArrow=ERmany;entryX=1;entryY=0.5;entryDx=0;entryDy=0;exitX=0;exitY=0.5;exitDx=0;exitDy=0;" edge="1" parent="1" source="AiTAA1YjpJdcQRGCm4l0-20" target="AiTAA1YjpJdcQRGCm4l0-103">
          <mxGeometry width="100" height="100" relative="1" as="geometry">
            <mxPoint x="140" y="590" as="sourcePoint" />
            <mxPoint x="240" y="490" as="targetPoint" />
          </mxGeometry>
        </mxCell>
        <mxCell id="AiTAA1YjpJdcQRGCm4l0-128" value="" style="edgeStyle=entityRelationEdgeStyle;fontSize=12;html=1;endArrow=ERmany;entryX=0;entryY=0.5;entryDx=0;entryDy=0;exitX=1;exitY=0.5;exitDx=0;exitDy=0;" edge="1" parent="1" source="AiTAA1YjpJdcQRGCm4l0-55" target="AiTAA1YjpJdcQRGCm4l0-116">
          <mxGeometry width="100" height="100" relative="1" as="geometry">
            <mxPoint x="440" y="960" as="sourcePoint" />
            <mxPoint x="590" y="1160" as="targetPoint" />
          </mxGeometry>
        </mxCell>
        <mxCell id="AiTAA1YjpJdcQRGCm4l0-129" value="" style="edgeStyle=entityRelationEdgeStyle;fontSize=12;html=1;endArrow=ERmany;exitX=1;exitY=0.5;exitDx=0;exitDy=0;entryX=0;entryY=0.5;entryDx=0;entryDy=0;" edge="1" parent="1" source="AiTAA1YjpJdcQRGCm4l0-20" target="AiTAA1YjpJdcQRGCm4l0-113">
          <mxGeometry width="100" height="100" relative="1" as="geometry">
            <mxPoint x="140" y="800" as="sourcePoint" />
            <mxPoint x="240" y="700" as="targetPoint" />
          </mxGeometry>
        </mxCell>
        <mxCell id="AiTAA1YjpJdcQRGCm4l0-133" value="" style="edgeStyle=entityRelationEdgeStyle;fontSize=12;html=1;endArrow=ERmany;exitX=0;exitY=0.5;exitDx=0;exitDy=0;entryX=1;entryY=0.5;entryDx=0;entryDy=0;" edge="1" parent="1" source="AiTAA1YjpJdcQRGCm4l0-4" target="AiTAA1YjpJdcQRGCm4l0-39">
          <mxGeometry width="100" height="100" relative="1" as="geometry">
            <mxPoint x="-330" y="590" as="sourcePoint" />
            <mxPoint x="-230" y="490" as="targetPoint" />
          </mxGeometry>
        </mxCell>
        <mxCell id="AiTAA1YjpJdcQRGCm4l0-140" value="" style="edgeStyle=entityRelationEdgeStyle;fontSize=12;html=1;endArrow=ERmany;exitX=1;exitY=0.5;exitDx=0;exitDy=0;entryX=0;entryY=0.5;entryDx=0;entryDy=0;" edge="1" parent="1" source="AiTAA1YjpJdcQRGCm4l0-20" target="AiTAA1YjpJdcQRGCm4l0-90">
          <mxGeometry width="100" height="100" relative="1" as="geometry">
            <mxPoint x="580" y="660" as="sourcePoint" />
            <mxPoint x="680" y="560" as="targetPoint" />
          </mxGeometry>
        </mxCell>
        <mxCell id="AiTAA1YjpJdcQRGCm4l0-141" value="" style="edgeStyle=entityRelationEdgeStyle;fontSize=12;html=1;endArrow=ERmany;exitX=1;exitY=0.5;exitDx=0;exitDy=0;entryX=0;entryY=0.5;entryDx=0;entryDy=0;" edge="1" parent="1" source="AiTAA1YjpJdcQRGCm4l0-20" target="AiTAA1YjpJdcQRGCm4l0-77">
          <mxGeometry width="100" height="100" relative="1" as="geometry">
            <mxPoint x="580" y="660" as="sourcePoint" />
            <mxPoint x="680" y="560" as="targetPoint" />
          </mxGeometry>
        </mxCell>
      </root>
    </mxGraphModel>
  </diagram>
</mxfile>
